<?xml version="1.0" encoding="UTF-8" standalone="no"?>
<svg
   xmlns:dc="http://purl.org/dc/elements/1.1/"
   xmlns:cc="http://creativecommons.org/ns#"
   xmlns:rdf="http://www.w3.org/1999/02/22-rdf-syntax-ns#"
   xmlns:svg="http://www.w3.org/2000/svg"
   xmlns="http://www.w3.org/2000/svg"
   xmlns:sodipodi="http://sodipodi.sourceforge.net/DTD/sodipodi-0.dtd"
   xmlns:inkscape="http://www.inkscape.org/namespaces/inkscape"
   width="1030"
   height="1030"
   viewBox="0 0 1030 1030"
   fill="none"
   version="1.1"
   id="svg35"
   sodipodi:docname="logo_corunetv2.svg"
   inkscape:version="0.92.2 5c3e80d, 2017-08-06">
  <metadata
     id="metadata39">
    <rdf:RDF>
      <cc:Work
         rdf:about="">
        <dc:format>image/svg+xml</dc:format>
        <dc:type
           rdf:resource="http://purl.org/dc/dcmitype/StillImage" />
        <dc:title></dc:title>
      </cc:Work>
    </rdf:RDF>
  </metadata>
  <sodipodi:namedview
     pagecolor="#ffffff"
     bordercolor="#666666"
     borderopacity="1"
     objecttolerance="10"
     gridtolerance="10"
     guidetolerance="10"
     inkscape:pageopacity="0"
     inkscape:pageshadow="2"
     inkscape:window-width="1280"
     inkscape:window-height="755"
     id="namedview37"
     showgrid="false"
     inkscape:zoom="0.22912621"
     inkscape:cx="515"
     inkscape:cy="515"
     inkscape:window-x="0"
     inkscape:window-y="1"
     inkscape:window-maximized="1"
     inkscape:current-layer="svg35" />
  <g
     clip-path="url(#clip0)"
     id="g18"
     transform="matrix(0.61322332,0,0,0.61322332,206.252,193.25288)">
    <path
       d="m 360.899,938.971 c -0.293,-0.256 -7.32,-0.95 -15.616,-1.543 C 279.673,932.74 218.14,906.855 174.123,865.426 110.09,805.158 75.8765,716.82 71.8216,601.286 68.3851,503.37 90.1481,402.347 133.11,316.789 190.685,202.128 281.149,121.806 385.17,92.9864 409.82,86.157 433.821,80.845 436.957,81.5246 c 0.646,0.14 4.938,-0.4592 9.538,-1.3315 28.205,-5.3479 109.035,-5.3772 154.368,-0.056 25.427,2.9847 71.966,9.8161 73.552,10.7967 0.604,0.373 4.476,1.1777 8.604,1.7883 4.129,0.6107 16.934,3.3388 28.456,6.0626 147.832,34.9473 248.869,107.9003 278.953,201.4163 8.598,26.729 10.162,39.257 9.892,79.061 -0.23,33.208 -0.781,39.856 -5.55,67.026 -2.912,16.589 -5.942,34.309 -6.732,39.378 -0.791,5.069 -3.704,20.15 -6.473,33.513 -2.769,13.363 -6.242,30.329 -7.718,37.702 -14.289,71.384 -20.224,95.192 -32.371,129.863 -19.798,56.512 -46.387,96.547 -81.835,123.222 -20.123,15.142 -57.688,31.37 -86.995,37.582 -3.687,0.781 -13.868,3.086 -22.625,5.121 -8.757,2.036 -17.43,3.921 -19.273,4.19 -1.844,0.269 -12.025,2.509 -22.625,4.978 -10.601,2.468 -24.176,5.55 -30.167,6.849 -5.992,1.298 -16.173,3.936 -22.625,5.861 -6.453,1.925 -16.634,4.85 -22.625,6.501 -5.992,1.651 -24.846,7.55 -41.899,13.111 -87.978,28.686 -118.266,36.206 -173.459,43.067 -8.832,1.098 -55.536,2.542 -56.449,1.745 z"
       id="path2"
       inkscape:connector-curvature="0"
       style="fill:#4f027c" />
    <path
       d="m 547.384,957.748 c -22.868,-2.222 -40.136,-7.443 -65.641,-19.843 -9.703,-4.719 -19.914,-9.92 -22.69,-11.56 -5.926,-3.498 -32.954,-20.341 -38.504,-23.993 -2.109,-1.388 -8.598,-5.552 -14.42,-9.252 -5.821,-3.701 -12.952,-8.281 -15.845,-10.178 -10.842,-7.106 -48.31,-29.515 -51.125,-30.577 -1.611,-0.607 -7.092,-3.498 -12.182,-6.426 -5.089,-2.927 -28.939,-15.399 -52.998,-27.715 C 221.709,791.448 205.234,782.14 176.633,763.208 89.0255,705.217 36.6161,635.239 18.7915,552.453 11.4655,518.427 13.015,468.891 22.5602,431.97 42.1957,356.02 92.6056,279.431 166.135,213.834 241.174,146.891 327.229,101.196 420.355,78.8465 481.29,64.2226 551.775,62.4108 609.489,73.9852 c 102.148,20.4854 193.73,87.6758 285.299,209.3138 75.797,100.688 117.292,197.225 121.852,283.452 4.28,81.12 -21.884,142.805 -83.083,195.854 -14.739,12.776 -36.857,29.825 -54.719,42.179 -7.588,5.247 -12.27,8.537 -31.13,21.876 -4.963,3.511 -89.235,59.02 -96.983,63.882 -65.196,40.916 -118.568,62.622 -164.644,66.962 -19.176,1.806 -22.413,1.826 -38.697,0.244 z"
       id="path4"
       inkscape:connector-curvature="0"
       style="opacity:0.8;fill:#4f027c" />
    <path
       d="m 508.578,1015.17 c -2.763,-0.38 -11.805,-1.5 -20.094,-2.5 -8.289,-1 -17.331,-2.46 -20.094,-3.25 -2.763,-0.79 -8.415,-2.32 -12.559,-3.4 -22.676,-5.89 -39.511,-12.275 -65.306,-24.748 -88.236,-42.664 -175.475,-130.644 -231.662,-233.63 -7.97,-14.609 -14.491,-26.9 -14.491,-27.314 0,-0.413 -1.973,-5.035 -4.385,-10.271 -10.529,-22.863 -26.442,-68.563 -32.171,-92.394 -10.4148,-43.321 -14.1233,-73.956 -14.0095,-115.729 0.1426,-52.377 8.1235,-95.543 25.9655,-140.428 28.133,-70.78 74.291,-128.182 162.798,-202.459 24.437,-20.508 79.643,-58.506 112.141,-77.1864 16.606,-9.5455 64.729,-32.5265 67.117,-33.4351 2.374,-0.9032 3.406,-1.0572 6.309,-2.3493 13.533,-6.0254 47.785,-17.1243 63.047,-20.4294 3.223,-0.6981 6.614,-1.4641 7.535,-1.7022 18.661,-4.8241 35.11,-7.6941 68.881,-7.7673 34.859,-0.0755 37.694,1.532 56.707,6.0556 11.052,2.6294 20.555,5.8704 21.685,6.2784 2.908,1.0495 2.307,0.5993 4.187,1.5085 3.988,0.0168 36.542,16.9661 47.698,24.8344 31.534,22.2422 64.573,58.9928 98.075,109.0928 4.002,5.986 7.715,11.259 8.251,11.72 1.458,1.254 45.326,66.927 45.326,67.857 0,0.441 3.271,5.507 7.269,11.258 39.741,57.165 67.107,111.975 78.783,157.788 5.831,22.878 6.712,30.176 6.568,54.413 -0.242,41.012 -9.966,69.195 -41.88,121.381 -1.126,1.842 -2.587,4.479 -3.247,5.86 -0.66,1.381 -1.631,2.888 -2.159,3.348 -1.713,1.495 -8.495,11.555 -8.495,12.601 0,0.559 -1.883,3.486 -4.186,6.504 -2.302,3.018 -4.186,6.266 -4.186,7.217 0,0.952 -1.174,2.704 -2.609,3.895 -1.434,1.19 -3.701,4.484 -5.036,7.32 -1.336,2.836 -4.118,7.552 -6.183,10.479 -6.863,9.73 -16.786,26.034 -22.647,37.212 -3.185,6.072 -9.516,17.705 -14.069,25.851 -4.553,8.146 -11.488,21.331 -15.411,29.299 -21.505,43.686 -45.403,86.788 -62.801,113.268 -59.313,90.275 -131.269,143.545 -216.077,159.962 -16.681,3.23 -53.529,5.51 -64.585,3.99 z"
       id="path6"
       inkscape:connector-curvature="0"
       style="fill:#4f027b" />
    <path
       d="m 508.576,1015.17 c -2.763,-0.38 -11.805,-1.5 -20.094,-2.5 -8.289,-1 -17.331,-2.46 -20.094,-3.25 -2.763,-0.79 -8.414,-2.32 -12.559,-3.39 -22.676,-5.9 -39.511,-12.285 -65.306,-24.757 -88.236,-42.665 -175.474,-130.645 -231.661,-233.631 -7.97,-14.608 -14.492,-26.899 -14.492,-27.313 0,-0.414 -1.972,-5.036 -4.384,-10.272 -10.53,-22.863 -26.442,-68.562 -32.171,-92.393 C 97.4,574.342 93.6915,543.708 93.8053,501.935 c 0.1426,-52.377 8.1237,-95.543 25.9647,-140.428 28.134,-70.78 74.291,-128.182 162.799,-202.459 24.437,-20.507 79.643,-58.506 112.141,-77.1862 16.606,-9.5454 64.561,-33.4351 67.117,-33.4351 0.567,0 3.406,-1.0571 6.308,-2.3492 13.533,-6.0255 47.786,-17.1244 63.047,-20.4295 3.224,-0.698 6.614,-1.464 7.535,-1.7021 18.662,-4.8241 34.884,-6.3393 68.655,-6.4125 34.859,-0.0755 37.92,0.1772 56.934,4.7008 11.051,2.6294 20.81,5.4546 21.685,6.2784 0.874,0.8237 2.758,1.5025 4.186,1.5085 3.989,0.0168 36.542,16.966 47.698,24.8344 31.534,22.2421 64.573,58.9925 98.075,109.0925 4.002,5.986 7.715,11.26 8.251,11.72 1.458,1.254 45.326,66.927 45.326,67.857 0,0.441 3.271,5.507 7.269,11.258 39.741,57.165 67.107,111.975 78.783,157.788 5.831,22.878 6.711,30.176 6.568,54.412 -0.242,41.012 -9.966,69.195 -41.88,121.382 -1.126,1.841 -2.587,4.478 -3.247,5.859 -0.66,1.382 -1.631,2.889 -2.159,3.349 -1.713,1.494 -8.495,11.554 -8.495,12.601 0,0.559 -1.883,3.486 -4.186,6.504 -2.302,3.018 -4.186,6.266 -4.186,7.217 0,0.951 -1.174,2.704 -2.609,3.894 -1.434,1.191 -3.701,4.485 -5.036,7.321 -1.336,2.836 -4.118,7.551 -6.183,10.479 -6.863,9.73 -16.786,26.034 -22.647,37.211 -3.185,6.073 -9.516,17.706 -14.069,25.852 -4.553,8.146 -11.488,21.33 -15.411,29.299 -21.505,43.685 -45.403,86.787 -62.801,113.267 -59.313,90.275 -131.269,143.545 -216.077,159.962 -16.681,3.23 -53.529,5.51 -64.585,3.99 z"
       id="path8"
       style="fill:url(#paint0_linear)"
       inkscape:connector-curvature="0" />
    <g
       id="g12"
       style="opacity:0.8">
      <path
         d="m 562.069,1030.76 c -2.572,-0.35 -10.989,-1.4 -18.704,-2.33 -7.716,-0.93 -16.132,-2.29 -18.704,-3.02 -2.572,-0.74 -7.832,-2.16 -11.69,-3.16 -21.107,-5.49 -36.777,-11.43 -60.788,-23.042 -82.131,-39.713 -163.334,-121.606 -215.634,-217.466 -7.418,-13.599 -13.488,-25.039 -13.488,-25.424 0,-0.385 -1.837,-4.688 -4.081,-9.561 -9.802,-21.282 -24.613,-63.819 -29.946,-86.002 -9.694,-40.324 -13.146,-68.839 -13.04,-107.722 0.133,-48.753 7.562,-88.932 24.168,-130.712 26.188,-65.883 69.152,-119.313 151.535,-188.451 22.747,-19.089 74.133,-54.459 104.383,-71.846 15.457,-8.885 60.095,-31.122 62.473,-31.122 0.529,0 3.171,-0.984 5.872,-2.187 12.597,-5.609 44.48,-15.94 58.685,-19.016 3.001,-0.65 6.157,-1.363 7.014,-1.584 17.37,-4.491 32.471,-5.901 63.905,-5.969 32.447,-0.071 35.296,0.165 52.995,4.375 10.287,2.448 19.37,5.078 20.184,5.844 0.815,0.767 2.568,1.399 3.897,1.405 3.713,0.015 34.014,15.792 44.398,23.116 29.352,20.703 60.105,54.911 91.289,101.545 3.726,5.571 7.182,10.48 7.68,10.909 1.358,1.167 42.191,62.296 42.191,63.161 0,0.411 3.045,5.127 6.766,10.48 36.991,53.21 62.464,104.227 73.332,146.871 5.429,21.295 6.249,28.088 6.119,50.648 -0.23,38.175 -9.282,64.408 -38.988,112.984 -1.048,1.714 -2.408,4.168 -3.022,5.454 -0.614,1.286 -1.518,2.688 -2.009,3.117 -1.595,1.391 -7.907,10.755 -7.907,11.729 0,0.52 -1.754,3.244 -3.897,6.054 -2.143,2.809 -3.897,5.832 -3.897,6.718 0,0.885 -1.092,2.516 -2.428,3.625 -1.335,1.108 -3.445,4.174 -4.688,6.814 -1.243,2.639 -3.833,7.028 -5.755,9.753 -6.388,9.058 -15.624,24.233 -21.08,34.637 -2.965,5.653 -8.858,16.481 -13.096,24.063 -4.238,7.583 -10.693,19.855 -14.344,27.272 -20.018,40.663 -42.262,80.783 -58.456,105.431 -55.21,84.03 -122.187,133.609 -201.128,148.899 -15.527,3 -49.826,5.12 -60.116,3.71 z"
         id="path10"
         style="opacity:0.8;fill:url(#paint1_linear)"
         inkscape:connector-curvature="0" />
    </g>
    <path
       d="m 323.383,333.632 c -15.387,0.007 -30.775,2.755 -45.212,8.078 -13.756,5.221 -26.39,13.392 -36.784,23.805 -10.284,10.226 -18.471,22.52 -23.943,35.949 -5.632,14.013 -8.458,29.168 -8.24,44.268 -0.386,19.905 4.685,39.891 14.5,57.213 9.909,17.45 24.948,31.953 42.75,41.218 8.171,4.499 16.96,7.836 26.057,9.897 9.859,2.63 19.902,3.487 29.989,3.504 8.404,-0.028 16.83,-0.903 25.067,-2.568 8.561,-1.753 16.958,-4.297 25.04,-7.623 v -0.187 l 1.819,-55.849 c 5.413,12.648 13.368,24.206 23.275,33.755 10.663,10.284 23.264,18.537 32.45,22.281 9.186,3.744 13.977,5.289 18.86,6.527 l 0.107,204.513 h 73.81 l 0.08,-105.52 62.601,105.573 219.02,-0.053 v -57.722 l -68.726,-0.08 v -21.906 l 60.754,-0.107 v -54.512 l -60.754,-0.107 v -20.034 h 94.569 v 154.361 h 0.214 v 0.214 l 76.298,-0.107 0.107,-154.468 42.348,-0.107 v -57.695 l -35.099,-0.107 c 13.472,-6.682 25.081,-17.033 33.2,-29.69 4.787,-7.465 8.082,-15.894 9.577,-24.635 2.216,-12.326 2.97,-37.393 2.97,-37.393 l -0.107,-115.497 -76.565,0.107 0.187,120.659 c 0.372,4.694 -1.353,14.277 -5.297,22.816 -1.754,2.611 -4.224,4.742 -7.062,6.098 -2.839,1.357 -6.023,1.93 -11.45,1.792 -5.428,-0.137 -10.804,-2.641 -13.965,-7.649 -0.004,-0.005 -0.025,0.005 -0.027,0 v -0.027 c -3.881,-8.639 -5.532,-18.272 -4.762,-27.711 L 840.932,338.821 H 764.26 l -0.107,40.202 c -3.611,-8.415 -9.216,-15.952 -16.265,-21.799 v -0.027 c -9.17,-6.684 -19.515,-11.726 -30.418,-14.872 -10.898,-3.145 -22.337,-4.379 -33.654,-3.611 -0.004,0 -0.023,0 -0.027,0 l -96.308,0.107 -0.107,69.09 c -0.684,-2.018 -1.393,-4.022 -2.193,-5.992 -5.448,-13.399 -13.666,-25.663 -23.97,-35.815 -10.544,-10.372 -23.193,-18.589 -36.972,-23.966 -14.232,-5.601 -29.543,-8.397 -44.837,-8.212 -15.272,0.122 -30.542,2.905 -44.863,8.212 l 0.16,0.374 c -0.009,0.009 -0.017,0.019 -0.027,0.027 -0.048,-0.132 -0.084,-0.27 -0.133,-0.401 -13.75,5.35 -26.369,13.572 -36.838,23.966 -10.256,11.528 -18.972,23.746 -24.104,35.842 l -0.107,-57.374 -0.027,-0.161 c -7.859,-3.557 -16.097,-6.295 -24.532,-8.104 -8.39,-1.8 -16.967,-2.686 -25.548,-2.675 z m 353.21,59.835 c 0.377,-0.007 0.748,-0.012 1.124,0 5.313,0.17 10.568,2.135 14.66,5.537 4.094,4.093 6.307,9.977 5.939,15.754 0,0.004 0,0.022 0,0.027 0.352,5.645 -1.868,11.398 -5.939,15.326 l -0.161,-0.187 0.134,0.187 c -4.713,3.794 -10.869,5.767 -16.907,5.376 h -0.027 -11.905 v -0.214 h -0.187 v -41.566 h 0.187 v -0.214 h 11.905 c 0.008,0 0.018,0.001 0.027,0 0.375,-0.024 0.773,-0.02 1.15,-0.026 z m -349.625,9.736 c 0.695,-0.005 1.392,-0.004 2.086,0.027 7.917,-0.025 15.828,1.695 23.034,4.975 6,2.731 11.61,6.322 16.586,10.645 l -0.133,0.161 0.214,0.026 c -1.912,8.756 -2.871,17.733 -2.836,26.695 0.034,8.756 0.938,17.501 2.702,26.079 l -0.187,0.053 0.107,0.161 c -5.757,4.059 -11.935,7.515 -18.406,10.298 -7.095,3.051 -14.802,4.694 -22.525,4.761 -0.005,0 -0.023,0 -0.027,0 -5.385,0.256 -10.804,-0.64 -15.837,-2.568 -5.038,-1.93 -9.673,-4.901 -13.51,-8.693 -3.727,-4.02 -6.659,-8.812 -8.534,-13.962 -1.874,-5.146 -2.702,-10.659 -2.435,-16.129 -0.264,-5.633 0.606,-11.325 2.568,-16.611 1.964,-5.29 5.029,-10.158 8.909,-14.256 v -0.027 c 3.972,-3.898 8.741,-6.969 13.938,-8.96 4.544,-1.741 9.419,-2.638 14.286,-2.675 z m 150.561,1.712 c 0.612,0.002 1.236,0.044 1.846,0.08 0.009,0 0.018,0 0.027,0 4.881,-0.183 9.796,0.724 14.286,2.648 4.497,1.927 8.561,4.863 11.797,8.533 6.785,8.183 10.385,18.939 9.872,29.556 0.515,10.528 -3.091,21.191 -9.872,29.262 v 0.026 c -3.259,3.632 -7.329,6.525 -11.824,8.426 -4.487,1.898 -9.391,2.808 -14.259,2.621 -0.009,0 -0.018,10e-4 -0.027,0 -4.878,0.183 -9.788,-0.724 -14.285,-2.621 -4.506,-1.9 -8.602,-4.796 -11.878,-8.426 v -0.026 c -6.824,-8.05 -10.44,-18.723 -9.926,-29.262 -0.488,-10.604 3.121,-21.329 9.926,-29.476 3.169,-3.774 7.243,-6.8 11.771,-8.747 3.395,-1.46 7.038,-2.329 10.727,-2.541 0.611,-0.035 1.208,-0.056 1.819,-0.053 z m 286.651,33.488 0.16,0.08 h 0.241 v 15.835 c -0.364,13.773 0.126,25.34 2.889,37.607 1.899,8.427 2.971,14.987 9.284,24.18 8.516,12.402 19.951,23.487 33.761,29.957 l -0.08,0.188 v 0.187 H 781.97 v -0.187 l -0.16,0.107 -53.264,-81.18 0.187,-0.107 -0.026,-0.214 c 5.866,-0.629 11.597,-2.476 16.72,-5.403 5.123,-2.927 9.641,-6.927 13.162,-11.662 2.17,-2.919 4.022,-6.038 5.591,-9.388 z m -101.418,43.01 34.323,64.73 -0.16,0.107 v 0.187 h -34.35 v -0.187 h -0.187 v -64.757 h 0.214 z m -75.388,0.615 0.214,0.081 h 0.187 v 64.141 5.429 101.615 h -0.187 l -0.187,0.107 -62.279,-104.824 0.16,-0.107 -0.053,-0.187 c 13.113,-5.35 25.172,-13.278 35.286,-23.191 10.396,-10.162 18.677,-22.453 24.211,-35.895 0.968,-2.352 1.85,-4.749 2.648,-7.169 z"
       id="path14"
       inkscape:connector-curvature="0"
       style="fill:#ffffff" />
    <path
       d="m 407.393,686.96 c -9.654,0 -19.242,3.973 -26.068,10.798 -6.826,6.825 -10.8,16.411 -10.8,26.063 0,9.652 3.974,19.238 10.8,26.063 6.826,6.825 16.414,10.785 26.068,10.785 9.653,0 19.241,-3.96 26.067,-10.785 6.826,-6.825 10.787,-16.411 10.787,-26.063 0,-9.652 -3.961,-19.238 -10.787,-26.063 -6.826,-6.825 -16.414,-10.798 -26.067,-10.798 z"
       id="path16"
       inkscape:connector-curvature="0"
       style="fill:#ffffff" />
  </g>
  <defs
     id="defs33">
    <linearGradient
       id="paint0_linear"
       x1="242.79"
       y1="234.361"
       x2="340.847"
       y2="361.139"
       gradientUnits="userSpaceOnUse">
      <stop
         stop-color="white"
         stop-opacity="0.115108"
         id="stop20" />
      <stop
         offset="1"
         stop-color="white"
         stop-opacity="0"
         id="stop22" />
    </linearGradient>
    <linearGradient
       id="paint1_linear"
       x1="169.718"
       y1="188.774"
       x2="722.588"
       y2="724.951"
       gradientUnits="userSpaceOnUse">
      <stop
         stop-opacity="0.705882"
         id="stop25" />
      <stop
         offset="1"
         stop-opacity="0"
         id="stop27" />
    </linearGradient>
    <clipPath
       id="clip0">
      <rect
         width="1030"
         height="1030"
         fill="white"
         id="rect30" />
    </clipPath>
  </defs>
</svg>
