<?xml version="1.0" encoding="UTF-8" standalone="no"?>
<svg
   xmlns:dc="http://purl.org/dc/elements/1.1/"
   xmlns:cc="http://creativecommons.org/ns#"
   xmlns:rdf="http://www.w3.org/1999/02/22-rdf-syntax-ns#"
   xmlns:svg="http://www.w3.org/2000/svg"
   xmlns="http://www.w3.org/2000/svg"
   xmlns:sodipodi="http://sodipodi.sourceforge.net/DTD/sodipodi-0.dtd"
   xmlns:inkscape="http://www.inkscape.org/namespaces/inkscape"
   width="370px"
   height="251px"
   viewBox="0 0 370 251"
   version="1.1"
   id="svg13"
   sodipodi:docname="galstech.svg"
   inkscape:version="0.92.2 5c3e80d, 2017-08-06">
  <metadata
     id="metadata17">
    <rdf:RDF>
      <cc:Work
         rdf:about="">
        <dc:format>image/svg+xml</dc:format>
        <dc:type
           rdf:resource="http://purl.org/dc/dcmitype/StillImage" />
        <dc:title>GalsTech</dc:title>
      </cc:Work>
    </rdf:RDF>
  </metadata>
  <sodipodi:namedview
     pagecolor="#ffffff"
     bordercolor="#666666"
     borderopacity="1"
     objecttolerance="10"
     gridtolerance="10"
     guidetolerance="10"
     inkscape:pageopacity="0"
     inkscape:pageshadow="2"
     inkscape:window-width="1280"
     inkscape:window-height="755"
     id="namedview15"
     showgrid="false"
     inkscape:zoom="0.87567568"
     inkscape:cx="185"
     inkscape:cy="125.5"
     inkscape:window-x="0"
     inkscape:window-y="1"
     inkscape:window-maximized="1"
     inkscape:current-layer="Artboard-3" />
  <!-- Generator: Sketch 48.2 (47327) - http://www.bohemiancoding.com/sketch -->
  <title
     id="title2">GalsTech</title>
  <desc
     id="desc4">Created with Sketch.</desc>
  <defs
     id="defs6" />
  <g
     id="Artboard-3"
     stroke="none"
     stroke-width="1"
     fill="none"
     fill-rule="evenodd"
     transform="translate(-15.000000, -74.000000)">
    <g
       id="GalsTech"
       transform="matrix(0.8122225,0,0,0.8122225,51.545718,99.437029)">
      <path
         d="M 111.74105,169.21402 H 85.931076 v 80.38731 H 63.14571 V 169.21402 H 37.537378 v -17.4755 h 74.203672 z m 70.3725,38.51332 h -38.37889 v 24.39849 h 45.23466 v 17.4755 h -68.02003 v -97.86281 h 68.15446 v 17.4755 h -45.36909 v 21.03781 h 38.37889 z m 93.35951,7.52791 0.13442,0.40328 c -0.44809,11.47115 -3.84233,20.23122 -10.18284,26.28046 -6.3405,6.04924 -15.53745,9.07382 -27.59113,9.07382 -12.09848,0 -21.93395,-3.71911 -29.50671,-11.15744 -7.57275,-7.43832 -11.35907,-17.09456 -11.35907,-28.969 v -20.43289 c 0,-11.82963 3.64069,-21.47467 10.92218,-28.9354 7.2815,-7.46074 16.7473,-11.19105 28.3977,-11.19105 12.36734,0 21.82194,3.1142 28.36408,9.34268 6.54214,6.22848 10.23885,15.07816 11.09022,26.54932 l -0.13443,0.40328 h -22.11323 c -0.31366,-6.36291 -1.73633,-11.09021 -4.26805,-14.18204 -2.53172,-3.09184 -6.84454,-4.63773 -12.93859,-4.63773 -5.15306,0 -9.20824,2.07239 -12.16564,6.21724 -2.95741,4.14485 -4.43609,9.57789 -4.43609,16.29927 v 20.56732 c 0,6.76619 1.61311,12.23283 4.83937,16.40009 3.22626,4.16725 7.66231,6.25085 13.30826,6.25085 5.46673,0 9.34267,-1.45628 11.62794,-4.36888 2.28526,-2.91259 3.58471,-7.55028 3.89838,-13.91318 z m 93.89721,34.34608 h -22.65094 v -39.38709 h -36.22806 v 39.38709 h -22.78536 v -97.86281 h 22.78536 v 41.00021 h 36.22806 v -41.00021 h 22.65094 z"
         id="TECH"
         inkscape:connector-curvature="0"
         style="fill:#444444" />
      <path
         d="m 101.48894,73.317154 c 0.1762,1.938157 -0.52859,3.523922 -1.40957,5.285883 -2.114352,4.228706 -4.404901,8.457411 -6.69545,12.686117 -1.233372,2.466745 -0.88098,4.228706 -1.938157,7.047843 -1.585764,4.757293 -3.876313,9.514593 -5.638274,14.448083 L 75.235724,138.6859 c -3.171529,8.10502 -7.400235,15.85764 -9.690784,23.96266 -2.290549,8.45742 -7.047843,16.38624 -11.100353,23.96267 -4.228705,8.10502 -7.928823,16.21004 -13.567097,23.43408 -2.995334,4.05251 -7.047843,9.33839 -11.805138,11.45274 -4.757294,2.11436 -10.924156,0.52859 -15.505254,-1.40956 -15.1528627,-6.34306 -16.5624313,-21.67212 -9.3383922,-34.71063 4.4049019,-7.75263 10.5717642,-14.62428 17.4434112,-20.26255 2.642941,-1.93816 4.933491,-4.4049 7.400235,-6.51926 1.761961,-1.58576 4.933491,-5.46207 7.576432,-5.63827 5.462078,-0.35239 -2.995334,7.75263 -3.876314,8.8098 -5.638274,7.04785 -10.571764,14.80047 -14.448078,23.08169 -2.642941,5.28588 -9.8669804,18.67679 -4.757294,24.31506 4.757294,5.46208 11.452745,-2.46675 14.271882,-6.16686 C 38.763137,188.0208 45.634784,169.8726 52.506431,152.78158 59.378078,135.16198 65.368744,117.18998 71.711803,99.217978 65.54494,109.43735 58.497097,119.48053 50.74447,128.46653 45.81098,133.9286 39.467921,140.97645 31.715294,141.85743 18.500588,143.44319 7.5764313,126.70457 7.9288234,115.07562 c 0,-0.17619 -0.7047843,-3.70011 0,-4.4049 v 3.17153 l 0.5285882,-4.05251 c -0.5285882,0.88098 -0.176196,-4.4049 0,-5.46208 0.8809804,-3.52392 1.9381574,-7.047839 3.3477254,-10.571761 2.114353,-5.638274 4.757294,-11.276549 6.871647,-16.914823 2.114353,-5.638274 5.109686,-10.747961 8.457412,-15.857647 0.704784,-1.057176 7.928823,-12.686117 9.162196,-12.157529 0,0 -1.233373,2.114353 -1.057177,2.114353 1.585765,-2.114353 3.347726,-4.93349 5.462078,-7.576431 l -1.409568,1.409568 c 0.704784,-2.819137 4.581098,-5.81447 6.343059,-7.928823 2.642941,-2.995334 5.109686,-5.990667 7.928823,-8.809804 5.285882,-5.109686 11.628941,-10.395569 19.205372,-11.276549 8.457412,-1.233372 16.210039,3.700118 20.791137,10.747961 1.585765,2.466745 1.585765,4.228706 1.938157,6.695451 0.176196,2.290549 1.409569,4.052509 1.409569,6.519254 0.176196,6.343059 -5.109687,12.333726 -9.514588,16.562432 -4.228706,4.052509 -10.747961,9.86698 -16.562432,11.452745 -3.347725,0.88098 -2.995333,-0.176197 -1.938156,-1.585765 -0.528589,0.352392 -1.057177,0.88098 -1.057177,0.528588 0.176196,-0.88098 7.047843,-11.452745 7.752628,-11.276549 0,0 -2.642942,4.93349 -2.819138,5.285883 3.876314,-5.990667 7.047843,-12.333726 8.986,-19.029177 0.880981,-3.171529 2.290549,-8.281215 0.880981,-11.452745 -2.995334,-6.166862 -14.271883,6.343059 -19.029177,11.628941 2.290549,-2.466745 4.581098,-4.93349 7.224039,-7.400235 2.114353,-1.761961 5.990667,-5.638274 8.809804,-5.638274 6.166863,0 1.585765,13.567098 1.409569,13.567098 -0.880981,-0.176196 5.109686,-14.448079 -1.761961,-13.03851 -5.81447,1.233372 -11.628941,8.809804 -15.329059,13.03851 -10.571764,11.981333 -19.73396,25.900823 -27.134195,39.996509 -3.700118,7.224039 -7.047843,14.80047 -10.219372,22.200709 -1.938157,4.58109 -7.576432,15.85764 -3.523922,20.43874 4.757294,5.46208 16.386235,-4.93349 19.205372,-7.40023 -0.528588,0.35239 -2.642941,2.46674 -3.347725,2.11435 0,0 8.281215,-8.28122 8.809804,-8.986 l 9.338392,-10.21937 c 6.695451,-7.576435 12.862313,-15.505258 19.029176,-23.434081 2.466745,-3.17153 5.285882,-6.343059 7.224039,-9.690785 0.704784,-1.057176 0.88098,-2.642941 1.057176,-2.995333 3.700118,-7.576431 16.56243,1.761961 17.09102,7.928823 z m -77.350078,0.704785 c -5.638274,9.690784 -10.043176,20.086352 -12.157529,30.834311 1.761961,-7.752625 5.638275,-15.505253 8.809804,-22.553096 3.700117,-8.281215 8.986,-16.386235 13.91949,-23.962666 2.114353,-2.995333 4.228706,-6.166863 6.519255,-9.162196 1.057176,-1.409569 2.466745,-4.581098 4.05251,-5.990666 -4.05251,3.347725 -7.400236,9.338392 -10.219373,13.567097 -3.876314,5.462079 -7.400235,11.452745 -10.924157,17.267216 z m 67.83549,14.624274 1.76196,-4.404902 c -7.047843,14.976667 -13.567098,30.481919 -18.85298,46.163369 2.114353,-6.34306 5.638275,-12.50992 8.281216,-18.85298 3.171529,-7.40023 5.990666,-15.15286 8.809804,-22.905487 z M 69.245058,143.44319 c 0.88098,-1.23337 1.409568,-2.81914 2.114353,-4.05251 -0.704785,0.70479 -1.409569,1.40957 -1.761961,2.11436 l -1.761961,4.05251 c 0.352392,-0.70479 0.880981,-1.40957 1.409569,-2.11436 z m -1.585765,2.64294 0.176196,-0.52858 c -0.176196,0.17619 -0.176196,0.35239 -0.176196,0.52858 z M 55.149372,53.406998 c 0,0.176196 -0.176196,0.352392 -0.352392,0.352392 0.176196,0 0.352392,-0.176196 0.352392,-0.352392 z M 188.55917,108.02778 c 0.35239,4.05251 -3.52392,8.10502 -4.93349,11.45275 -2.29055,5.28588 -4.93349,10.04317 -7.75263,14.80047 -3.34773,5.28588 -6.69545,10.39556 -10.57177,14.97666 -3.17152,4.05251 -7.57643,9.1622 -12.86231,10.04318 -5.99067,1.05718 -10.74796,-3.87631 -12.68612,-9.1622 -4.2287,-10.39557 -1.23337,-21.31972 1.93816,-31.3629 0,0 0,-1.58576 0.1762,-2.81914 -1.76196,2.64295 -4.22871,5.81447 -5.81447,8.28122 -2.11436,3.34773 -3.70012,6.69545 -5.99067,9.86698 -1.05718,1.58576 -15.50525,19.02918 -17.44341,16.03384 0,0 2.11435,-0.88098 1.93816,-1.23337 -2.11436,1.40957 -4.9335,1.76196 -7.40024,1.05718 0.52859,0.35239 0.88098,0.52859 0.70478,0.52859 -4.05251,0.52858 -7.22403,-5.81448 -8.105015,-8.63361 -1.409569,-4.93349 -1.057177,-10.39557 -0.176196,-15.32906 1.938161,-10.21937 6.166861,-21.31973 12.157531,-30.12953 1.58576,-2.114353 3.17153,-4.581098 5.46208,-6.166862 1.40956,-1.233373 2.64294,-1.409569 4.2287,-2.466745 2.64294,-2.290549 4.93349,-4.228706 8.80981,-4.228706 8.6336,0 12.15752,9.86698 13.91949,16.562433 4.2287,-5.46208 11.80513,-12.686119 18.32439,-4.757296 3.52392,4.228706 1.23337,7.400236 -0.70479,11.276546 -3.34772,6.16687 -5.99066,13.7433 -7.40023,20.08636 0.17619,-0.52859 0.70478,-3.17153 1.40957,-3.34773 1.40957,-0.35239 -11.27655,39.46792 6.87164,17.09102 5.46208,-6.87165 10.21938,-14.09569 14.97667,-21.31973 2.11435,-3.34772 4.22871,-6.87164 6.51925,-10.21937 1.05718,-1.40957 4.22871,-4.75729 4.40491,-0.88098 z m -50.56828,1.23337 c 0.88098,-1.40956 0.88098,-1.40956 0.88098,-2.81913 0,-1.40957 -3.52392,-11.100356 -2.64294,-11.80514 0.1762,-0.176196 1.76196,4.93349 1.93816,5.285882 -0.52859,-2.114353 -1.23337,-8.633608 -4.4049,-8.633608 -5.81447,0 -10.21937,10.747966 -12.15753,14.800466 -3.52392,7.92883 -6.69545,16.38624 -8.10502,25.01985 0.52859,-2.64294 10.74796,-34.534434 13.91949,-34.358237 -2.46675,0.528588 -11.80514,27.662787 -12.33373,30.129527 -0.35239,1.40957 -3.17153,10.57177 -0.52858,11.45275 1.76196,0.52858 5.99066,-4.93349 6.87164,-6.16687 3.34773,-4.05251 6.51926,-8.28121 9.51459,-12.68611 l 4.5811,-6.51926 c 0.70478,-1.23337 1.58576,-2.46674 2.46674,-3.70012 z m 4.05251,8.63361 1.58577,-4.2287 -0.88098,1.23337 c -0.1762,0.52859 -0.70479,2.99533 -0.70479,2.99533 z m -2.64294,-10.92415 c 0.52859,-0.52859 0.52859,-1.05718 0,-1.76197 z m 107.50897,-1.40957 c 4.05251,-4.22871 4.40491,2.29055 3.70012,5.10968 -1.05717,3.87632 -3.34772,7.40024 -5.46208,10.92416 -5.28588,8.45741 -9.86698,17.44341 -15.68145,25.90082 -6.34306,9.1622 -13.2147,18.50059 -21.31972,26.42941 -6.87165,6.51926 -16.38624,11.62894 -24.66745,4.05251 -7.40024,-6.87164 -7.40024,-19.20537 -6.87165,-28.54376 0.70478,-9.86698 3.34773,-19.38157 5.63827,-28.89616 0.1762,-0.35239 0,-4.5811 0.88098,-5.81447 -0.17619,0.35239 -0.17619,1.58577 -0.35239,2.64294 0.35239,-1.23337 0.70479,-2.46674 1.23337,-3.70011 h -0.52858 c -0.52859,-3.52393 1.93815,-8.986 2.99533,-12.33373 1.23337,-4.052509 2.64294,-8.281215 4.05251,-12.333725 2.64294,-7.576431 5.46208,-14.976666 7.92882,-22.553097 2.29055,-7.576432 5.81447,-14.800471 9.3384,-21.848314 1.58576,-3.347725 3.34772,-6.695451 5.28588,-10.043176 0.52859,-0.880981 4.4049,-8.457412 5.28588,-8.281216 l -1.40957,2.995333 5.63828,-9.690784 -0.1762,0.176196 c 0.88098,-1.409568 2.11435,-4.052509 2.99533,-5.109686 l 4.05251,-5.4620782 c 2.46675,-2.9953332 5.46208,-7.2240391 9.51459,-8.45741159 7.75263,-2.46674511 14.09569,5.63827439 15.15286,12.50992179 l 0.1762,0.176196 v 0.88098 c 1.05718,10.747961 -5.28588,23.434078 -10.04318,32.596274 -2.81913,5.638275 -5.81447,12.509921 -10.21937,17.091019 -2.99533,3.347726 -4.5811,6.871647 -7.04784,10.924157 -6.69545,10.747961 -13.91949,21.495921 -21.84832,31.362901 -1.93815,2.46675 -3.17153,4.05251 -4.05251,7.22404 -1.05717,3.34773 -1.93815,6.69545 -2.81913,10.21937 -1.05718,3.52392 -1.93816,7.04784 -2.81914,10.57177 -0.35239,1.58576 -1.93816,6.51925 -1.76196,6.87164 -0.52859,2.11436 -0.88098,4.40491 -1.05718,6.51926 l 1.40957,-5.28588 c 0.88098,1.40956 -0.52859,6.69545 -0.70478,8.28121 -0.3524,2.64294 -0.52859,5.46208 -0.52859,8.28122 0,3.34772 0,10.92415 4.4049,11.62894 5.99067,0.70478 12.33373,-8.28122 15.32906,-11.98134 7.22404,-8.6336 13.2147,-18.32439 19.20537,-27.83898 3.17153,-4.93349 6.16686,-9.86697 9.1622,-14.97666 1.93815,-3.17153 3.52392,-7.57643 5.99066,-10.21937 z M 224.88492,42.482841 c -6.51925,15.681451 -11.62894,32.596274 -16.73862,48.101529 13.03851,-20.967333 27.83898,-42.991843 35.7678,-66.602117 -2.99533,8.457412 -7.40023,16.562431 -11.45274,24.315059 -2.46675,4.404902 -4.7573,8.809803 -7.40024,13.214705 -1.58576,2.642942 -4.75729,6.695451 -5.81447,9.514589 1.40957,-4.581098 5.63827,-9.866981 8.10502,-14.095687 l 7.40023,-13.743293 c 4.22871,-8.457412 10.57177,-18.852981 10.92416,-28.719961 v -0.176196 c 0.35239,-9.338392 -7.57643,1.233373 -8.8098,3.171529 -4.93349,7.928824 -8.45741,16.562432 -11.98134,25.019843 z m -5.63827,-12.333725 c -1.93816,3.700117 -3.70012,7.224039 -5.28588,11.100353 -0.1762,0.176196 -0.1762,0.528588 -0.1762,0.704784 3.87632,-7.047843 8.45741,-13.743294 12.15753,-21.143529 -1.76196,3.171529 -4.93349,5.990666 -6.69545,9.338392 z m -33.30106,91.093374 c 0.1762,-0.1762 0.1762,-0.70479 -0.17619,-0.52859 -0.70479,0 -1.58577,3.70012 -2.11436,7.75263 v -0.1762 c -1.23337,6.16686 -1.93815,12.68612 -2.29055,19.02918 l 0.52859,-5.63828 v 0.52859 c 0,-1.23337 0.35239,-2.29055 0.52859,-3.52392 1.05718,-5.28588 1.23337,-11.98133 3.34773,-16.91483 0,0 0,-0.17619 0.17619,-0.52858 z m 123.54282,-12.15753 v 0.17619 c 0.70478,5.63828 -8.10502,10.21938 -11.80514,12.86232 -5.10969,3.70011 -10.21937,7.22404 -15.85765,10.21937 -1.40957,0.70478 -3.52392,1.40957 -4.93349,2.46674 -1.93815,1.58577 -1.58576,1.40957 -1.23337,4.22871 0.52859,3.17153 0.88098,6.34306 0.88098,9.69078 0.1762,4.93349 -0.35239,9.86698 -2.11435,14.62428 -4.22871,10.92416 -12.68612,17.972 -24.84365,17.61961 -10.74796,-0.1762 -22.2007,-5.81447 -19.91016,-17.44341 -0.17619,0.35239 -0.70478,3.34772 -0.88098,3.17152 -1.23337,-0.70478 0,-4.58109 0.3524,-5.46207 2.11435,-6.51926 7.75262,-11.62895 13.03851,-15.68145 2.99533,-2.29055 5.99066,-4.5811 8.986,-6.51926 2.29054,-1.40957 7.57643,-3.52392 7.92882,-5.99067 0.52859,-2.46674 -1.76196,-7.75262 -2.46674,-10.39556 -0.70479,-3.34773 -1.93816,-6.87165 -2.29055,-10.39557 -0.1762,-2.29055 0.52858,-3.70012 0,-5.81447 -0.88099,-2.81914 -1.76197,-5.46208 -1.93816,-8.457415 -0.1762,-2.995333 -0.1762,-5.990667 0.88098,-8.809804 1.40957,-4.228706 10.74796,-13.91949 15.50525,-9.514588 0,-0.88098 2.29055,2.466745 2.46675,3.523922 0,0.704784 -0.70478,7.224039 -1.76196,7.047843 0,0 0.35239,-1.585765 0.52859,-2.819137 -0.88098,2.466745 -2.29055,4.757294 -2.46675,7.400235 -0.35239,2.290549 0.1762,4.93349 0.52859,7.047844 0,-0.35239 0,-0.70479 0.35239,-0.88098 -0.17619,0 1.76196,9.16219 3.34773,16.56243 -1.23337,-4.75729 -2.81914,-10.39557 -3.52392,-13.74329 1.40956,7.75262 3.17152,15.32905 4.93349,22.90549 0.17619,-0.1762 0.35239,-0.52859 0.17619,-1.40957 0.1762,0.52858 0.35239,0.88098 0.35239,1.05717 7.75263,-3.87631 14.97667,-7.57643 22.20071,-12.15753 3.17153,-2.11435 6.51925,-5.63827 9.86698,-7.22403 1.76196,-0.70479 3.17153,-0.3524 3.70012,2.11435 z m -71.18322,60.61145 c 2.46675,0.88098 5.28588,0.35239 7.75263,-0.1762 l 4.93349,-1.93816 c 0.1762,0.1762 -1.40957,1.23338 -1.40957,1.40957 2.11436,-1.23337 3.87631,-2.81913 5.46208,-4.75729 l -0.88098,0.70478 c 1.40957,-1.40956 4.75729,-8.45741 4.93349,-9.16219 1.23337,-4.22871 1.23337,-8.45741 1.05718,-12.68612 -0.3524,0.35239 -0.88098,0.52859 -1.23338,0.70478 l 1.23338,-1.05717 -2.11436,1.23337 c 1.05718,-0.35239 -2.29055,2.29055 -2.81913,2.64294 l -5.28589,3.52392 c -3.52392,2.46675 -7.40023,5.10969 -10.04317,8.63361 -1.58577,2.29055 -6.16687,9.51459 -1.58577,10.92416 z m 22.20071,5.10968 c 4.5811,-2.11435 7.04784,-5.10968 8.986,-8.986 -5.10969,7.22404 -14.09569,11.45275 -22.7293,11.98134 4.7573,-0.1762 9.1622,-1.05718 13.7433,-2.99534 z m 12.86231,-50.03968 c -0.17619,-1.23337 -0.52859,-2.99534 -1.05718,-4.93349 0.3524,1.93815 0.70479,3.87631 1.05718,4.93349 z m 2.29055,18.32439 c 0,-0.1762 -0.17619,-0.52859 -0.17619,-0.88098 0,0.35239 0,0.70478 0.17619,0.88098 z"
         id="Gals"
         inkscape:connector-curvature="0"
         style="fill:#2ba8a2" />
      <path
         d="m 296.69217,5.1072486 c 2.64294,-0.5285882 4.75729,-0.7047843 5.81447,2.4667451 1.05717,3.1715293 1.40957,6.6954513 1.93815,10.0431763 0.70479,3.347725 1.05718,6.695451 1.40957,10.043176 l 0.52859,5.285883 c 0,1.057176 0.70479,4.404901 0,5.462078 -0.70478,1.057176 -1.93816,0.528588 -2.81914,-0.176196 -1.23337,-1.233373 -1.23337,-2.819137 -1.40956,-4.228706 l -1.23338,-10.219372 -1.76196,-10.571765 c -0.17619,-1.409569 -0.17619,-3.171529 -0.88098,-4.4049018 -0.70478,-1.2333725 -1.93816,-2.1143529 -1.58576,-3.7001176 z M 282.06789,48.099091 c -0.17619,-0.704784 -0.17619,-1.409568 -0.17619,-2.114353 1.58576,0.704785 6.87164,2.290549 5.10968,5.109686 -1.23337,1.761961 -5.81447,1.761961 -7.75262,2.290549 -6.34306,1.761961 -12.68612,3.876314 -19.20538,4.93349 -1.40956,0.176197 -6.87164,0 -5.63827,-2.819137 0.52859,-1.409568 6.87165,-1.409568 8.28121,-1.76196 6.69546,-1.233373 13.03851,-3.17153 19.38157,-5.638275 z M 311.66883,3.8738761 c 0.52859,5.9906665 -1.05717,12.3337249 -1.40956,18.5005879 -0.1762,2.466745 -0.88099,6.519255 0,8.809804 0.70478,1.761961 2.99533,2.114353 4.0525,0.528588 1.23338,-1.761961 -0.17619,-5.638274 0,-7.752627 0.1762,-2.995334 0.70479,-6.166863 1.05718,-8.986 0.35239,-2.642941 1.58577,-6.519255 1.05718,-9.1621961 -0.35239,-2.1143529 -2.99534,-3.3477254 -4.7573,-1.9381568 z m 25.72463,36.4725879 17.44341,-8.986 c 2.46675,0.352392 4.05251,1.585765 1.40957,3.523921 -2.46674,1.761961 -5.99067,2.642942 -8.63361,4.228706 -2.99533,1.585765 -5.99066,3.17153 -8.8098,4.93349 -2.99533,1.585765 -6.16686,3.876314 -9.69079,3.876314 -0.88098,0.176196 -2.46674,0 -2.81913,-1.233372 -0.1762,-1.409569 1.40957,-1.761961 2.46674,-2.114353 2.99534,-1.057177 5.81447,-2.819138 8.63361,-4.228706 z m -22.20071,44.577607 c 0.1762,2.290549 0.88099,5.638274 0,8.105019 -0.70478,1.938157 -2.81913,1.761961 -3.87631,0 -0.52859,-1.233372 -0.17619,-2.114353 0,-3.347725 0,-1.409569 0,-2.995333 -0.17619,-4.404902 -0.1762,-2.995333 -0.3524,-5.81447 -0.88098,-8.633608 -0.1762,-1.409568 -0.1762,-3.171529 -0.70479,-4.581098 -0.1762,-0.88098 -1.05718,-1.938156 -1.05718,-2.819137 0.1762,-2.114353 3.17153,-1.585764 4.22871,-0.528588 1.40957,1.409569 2.64294,16.033843 2.46674,16.210039 z M 293.69683,62.194777 c 3.17153,0.704784 2.11436,2.290549 1.05718,4.757294 -0.88098,2.290549 -1.93816,4.404902 -2.99533,6.343059 -1.40957,2.642941 -2.46675,5.285882 -3.70012,7.752627 -0.70479,1.409569 -1.93816,4.581098 -3.87631,4.93349 -5.46208,0.528589 1.76196,-10.395568 2.46674,-11.452744 1.05718,-2.114353 2.11435,-4.404902 2.99533,-6.695451 0.70479,-1.761961 1.58577,-5.638275 4.05251,-5.638275 z M 270.79134,21.845876 c 4.22871,4.757294 8.28122,9.690784 12.86232,14.095686 1.93815,1.938157 4.93349,4.05251 6.16686,6.519255 1.23337,2.466745 -0.35239,4.404902 -2.46675,1.938156 -3.87631,-4.404901 -8.28121,-8.633607 -12.33372,-12.862313 -1.93816,-2.114353 -4.93349,-4.228706 -6.16686,-6.871647 -0.3524,-0.704784 -0.70479,-2.290549 -0.3524,-2.995333 0.52859,-0.880981 1.76197,-1.057177 2.29055,0.176196 z m 57.96851,30.834313 c 1.23338,-1.938157 4.05251,-1.409569 5.99067,-1.585765 2.29055,-0.352392 4.4049,-0.88098 6.51925,-1.585764 1.23338,-0.528589 9.51459,-4.757294 9.3384,-0.880981 0,1.585765 -2.64295,2.290549 -3.70012,2.642941 -2.46675,1.057177 -4.7573,1.938157 -7.40024,2.466746 -2.64294,0.704784 -9.33839,2.642941 -10.74796,-1.057177 z m 11.27655,15.329059 c -1.93815,-0.176196 -3.87631,-1.233373 -5.63827,-1.938157 l -7.22404,-2.466745 c -2.11436,-0.704785 -4.4049,-1.409569 -6.34306,-2.466745 -2.29055,-1.233373 -2.29055,-3.523922 0.70478,-3.347726 1.93816,0.176196 3.52392,1.938157 5.46208,2.642941 2.29055,1.057177 4.93349,1.761961 7.40024,2.642942 1.93815,0.528588 5.28588,1.057176 6.87164,2.466745 1.40957,1.409568 0.52859,2.466745 -1.23337,2.466745 z M 339.50781,27.48415 c -2.11435,3.700118 -4.93349,6.695451 -8.10502,9.514588 -1.40956,1.409569 -3.70011,3.876314 -5.81447,4.228706 -1.40956,0.176196 -3.34772,-0.704784 -2.99533,-2.466745 0.35239,-1.057176 3.17153,-1.761961 4.05251,-2.642941 l 4.93349,-4.228706 c 1.58577,-1.233372 3.17153,-2.466745 4.5811,-3.876314 1.40957,-1.233372 1.58576,-1.585764 3.34772,-0.528588 z m -18.85298,5.638275 c 0.1762,-4.05251 1.58577,-8.10502 2.46675,-11.981333 0.35239,-1.057177 0.70478,-3.523922 1.93815,-3.876314 1.05718,-0.352392 2.11436,0.352392 2.46675,1.409568 0.1762,1.057177 -0.88098,3.523922 -1.05718,4.581098 -0.52858,1.409569 -1.05717,2.642941 -1.40957,4.05251 -0.52858,1.761961 -1.93815,6.871647 -4.4049,5.814471 z M 335.4553,18.850542 c -0.70478,0.528589 -2.64294,1.938157 -2.46674,2.995334 0.1762,1.057176 1.76196,1.409568 2.64294,1.409568 2.29055,-0.352392 4.93349,-4.052509 6.69545,-5.462078 2.46675,-2.290549 3.52392,-3.700117 0,-5.285882 z m -30.30572,49.687294 c -0.1762,-1.585765 -2.64294,-4.404902 -4.22871,-2.466745 -0.52858,0.704784 -0.17619,2.466745 -0.17619,3.171529 -0.1762,1.585765 -0.52859,2.995334 -0.52859,4.404902 -0.1762,2.819137 2.46674,4.581098 3.87631,1.409569 0.88098,-1.761961 1.05718,-4.581098 1.05718,-6.519255 z m -25.54843,-3.700118 c 1.40957,-2.642941 3.52392,-4.757294 5.28588,-7.047843 1.05718,-1.585764 4.93349,-4.404902 6.34306,-1.233372 0.52859,1.409568 -4.05251,3.876313 -5.28588,5.109686 -1.76196,1.585765 -3.70012,4.228706 -6.34306,3.171529 z m 12.33372,17.619608 c 1.23338,0 2.99534,-0.528588 3.87632,0.704784 0.70478,0.880981 0.35239,1.938157 0,2.995333 -0.70479,1.761961 -1.05718,4.05251 -2.64294,5.109687 -5.28589,3.347725 -1.76196,-6.871647 -1.23338,-8.809804 z M 340.2126,60.609012 c -1.40957,0 -5.81447,-1.76196 -3.52392,-3.523921 0.70478,-0.528588 2.64294,-0.176196 3.70011,-0.176196 1.58577,0 3.34773,-0.176196 5.10969,0 1.05718,0.176196 5.10969,0.352392 3.52392,2.290549 -0.70478,0.704784 -2.81914,0.528588 -3.87631,0.704784 -1.58577,0.176196 -3.34773,0.352392 -4.93349,0.704784 z M 267.61982,43.517993 c -1.23338,-0.176196 -4.7573,-2.466745 -3.34773,-4.05251 0.52859,-0.704784 1.93816,-0.352392 2.46674,0 1.58577,0.528589 2.11436,1.057177 3.87632,0.528589 1.05717,-0.352392 2.81913,-1.409569 3.70012,-1.057177 0.88098,0.528588 0.52858,2.114353 0,2.819137 -1.23338,2.290549 -4.40491,2.290549 -6.69545,1.761961 z m 31.1867,-4.404902 c -2.99533,5.462079 -7.57643,-4.581098 -7.04784,-7.576431 0.17619,-0.704784 0.70478,-2.114353 1.76196,-1.938157 1.05717,0.176196 1.23337,1.761961 1.58576,2.642941 0.88098,2.819137 1.58577,4.581098 3.70012,6.871647 z m 29.07235,43.344235 c -1.23337,-1.057177 -4.5811,-5.462078 -6.51925,-4.05251 -1.93816,1.409569 1.93815,3.876314 2.81914,4.93349 1.05717,1.233373 1.58576,5.638275 3.87631,4.581098 2.11435,-0.88098 0.35239,-3.876313 -0.1762,-5.462078 z M 315.19275,63.780542 c 1.05718,-4.05251 8.63361,4.581098 8.98601,6.343059 0.35239,2.642941 -1.93816,2.114353 -3.34773,0.88098 -2.11435,-1.938157 -3.87631,-4.93349 -5.63828,-7.224039 z m -50.21588,11.100353 c 1.40957,2.114353 3.52392,-0.176196 4.5811,-1.409569 0.70479,-0.88098 1.23337,-1.761961 2.11435,-2.466745 0.52859,-0.528588 2.11436,-0.88098 2.46675,-1.585765 0.1762,-0.88098 -0.88098,-1.76196 -1.76196,-1.938156 -0.88098,0 -1.58577,0.528588 -2.11435,1.057176 -1.93816,2.114353 -3.52393,4.228706 -5.28589,6.343059 z m 24.13887,-50.039686 c 3.70011,-0.352392 0.88098,-5.285882 -1.40957,-5.81447 -3.87632,-0.704785 -0.3524,6.166862 1.40957,5.81447 z"
         id="j"
         inkscape:connector-curvature="0"
         style="fill:#43ffd7" />
    </g>
  </g>
</svg>
